<mxfile host="app.diagrams.net" agent="Mozilla/5.0 (Windows NT 10.0; Win64; x64) AppleWebKit/537.36 (KHTML, like Gecko) Chrome/136.0.0.0 Safari/537.36" version="26.2.14">
  <diagram name="Page-1" id="QS_UrpabBJZtdD8J2AG7">
    <mxGraphModel dx="906" dy="493" grid="0" gridSize="10" guides="1" tooltips="1" connect="1" arrows="1" fold="1" page="1" pageScale="1" pageWidth="850" pageHeight="1100" math="0" shadow="0">
      <root>
        <mxCell id="0" />
        <mxCell id="1" parent="0" />
        <mxCell id="1s6SMQwYfVpw13C6PoIe-64" value="" style="rounded=0;whiteSpace=wrap;html=1;fillColor=none;rotation=0;" vertex="1" parent="1">
          <mxGeometry x="1132.57" y="417" width="214" height="299" as="geometry" />
        </mxCell>
        <mxCell id="1s6SMQwYfVpw13C6PoIe-65" value="Machine 2" style="text;html=1;strokeColor=none;fillColor=none;align=center;verticalAlign=middle;whiteSpace=wrap;rounded=0;rotation=0;" vertex="1" parent="1">
          <mxGeometry x="1132.5700000000002" y="417" width="65.43" height="18" as="geometry" />
        </mxCell>
        <mxCell id="1s6SMQwYfVpw13C6PoIe-66" value="play sound" style="rounded=1;whiteSpace=wrap;html=1;rotation=0;" vertex="1" parent="1">
          <mxGeometry x="1187.9466821720612" y="437.38245234503387" width="83" height="37" as="geometry" />
        </mxCell>
        <mxCell id="1s6SMQwYfVpw13C6PoIe-67" value="" style="pointerEvents=1;verticalLabelPosition=bottom;shadow=0;dashed=0;align=center;html=1;verticalAlign=top;shape=mxgraph.electrical.electro-mechanical.loudspeaker;rotation=-90;" vertex="1" parent="1">
          <mxGeometry x="1203.55" y="338" width="51.78" height="105" as="geometry" />
        </mxCell>
        <mxCell id="1s6SMQwYfVpw13C6PoIe-68" style="edgeStyle=orthogonalEdgeStyle;rounded=0;orthogonalLoop=1;jettySize=auto;html=1;exitX=0.5;exitY=0;exitDx=0;exitDy=0;entryX=0.5;entryY=1;entryDx=0;entryDy=0;strokeWidth=2;" edge="1" parent="1" source="1s6SMQwYfVpw13C6PoIe-69" target="1s6SMQwYfVpw13C6PoIe-71">
          <mxGeometry relative="1" as="geometry" />
        </mxCell>
        <mxCell id="1s6SMQwYfVpw13C6PoIe-69" value="Server" style="rounded=1;whiteSpace=wrap;html=1;rotation=0;" vertex="1" parent="1">
          <mxGeometry x="1166.566682172061" y="578.0024523450339" width="131" height="47" as="geometry" />
        </mxCell>
        <mxCell id="1s6SMQwYfVpw13C6PoIe-70" style="edgeStyle=orthogonalEdgeStyle;rounded=0;orthogonalLoop=1;jettySize=auto;html=1;exitX=0.5;exitY=0;exitDx=0;exitDy=0;strokeWidth=2;" edge="1" parent="1" source="1s6SMQwYfVpw13C6PoIe-71" target="1s6SMQwYfVpw13C6PoIe-66">
          <mxGeometry relative="1" as="geometry" />
        </mxCell>
        <mxCell id="1s6SMQwYfVpw13C6PoIe-71" value="Evaluate timestamp&lt;br&gt;&lt;font style=&quot;font-size: 10px;&quot;&gt;(delay or remove bundle)&lt;/font&gt;" style="rounded=1;whiteSpace=wrap;html=1;rotation=0;" vertex="1" parent="1">
          <mxGeometry x="1169.566682172061" y="514.0024523450339" width="119.75" height="35" as="geometry" />
        </mxCell>
        <mxCell id="1s6SMQwYfVpw13C6PoIe-72" value="&lt;font style=&quot;font-size: 8px;&quot;&gt;&quot;tick&quot;&lt;/font&gt;" style="rounded=0;whiteSpace=wrap;html=1;rotation=0;" vertex="1" parent="1">
          <mxGeometry x="1238.95" y="483.38" width="47.05" height="19" as="geometry" />
        </mxCell>
        <mxCell id="1s6SMQwYfVpw13C6PoIe-76" value="" style="rounded=0;whiteSpace=wrap;html=1;fillColor=none;rotation=0;" vertex="1" parent="1">
          <mxGeometry x="836" y="416.5" width="197" height="301.5" as="geometry" />
        </mxCell>
        <mxCell id="1s6SMQwYfVpw13C6PoIe-77" value="Machine 1" style="text;html=1;strokeColor=none;fillColor=none;align=center;verticalAlign=middle;whiteSpace=wrap;rounded=0;rotation=0;" vertex="1" parent="1">
          <mxGeometry x="836" y="417" width="65.43" height="18" as="geometry" />
        </mxCell>
        <mxCell id="1s6SMQwYfVpw13C6PoIe-78" value="play sound" style="rounded=1;whiteSpace=wrap;html=1;rotation=0;" vertex="1" parent="1">
          <mxGeometry x="887.3766821720612" y="436.88245234503387" width="83" height="37" as="geometry" />
        </mxCell>
        <mxCell id="1s6SMQwYfVpw13C6PoIe-79" value="" style="pointerEvents=1;verticalLabelPosition=bottom;shadow=0;dashed=0;align=center;html=1;verticalAlign=top;shape=mxgraph.electrical.electro-mechanical.loudspeaker;rotation=-90;" vertex="1" parent="1">
          <mxGeometry x="902.98" y="337.5" width="51.78" height="105" as="geometry" />
        </mxCell>
        <mxCell id="1s6SMQwYfVpw13C6PoIe-80" style="edgeStyle=orthogonalEdgeStyle;rounded=0;orthogonalLoop=1;jettySize=auto;html=1;exitX=0.5;exitY=0;exitDx=0;exitDy=0;entryX=0.5;entryY=1;entryDx=0;entryDy=0;strokeWidth=2;" edge="1" parent="1" source="1s6SMQwYfVpw13C6PoIe-81" target="1s6SMQwYfVpw13C6PoIe-83">
          <mxGeometry relative="1" as="geometry" />
        </mxCell>
        <mxCell id="1s6SMQwYfVpw13C6PoIe-81" value="Server" style="rounded=1;whiteSpace=wrap;html=1;rotation=0;" vertex="1" parent="1">
          <mxGeometry x="865.9966821720611" y="578.0024523450339" width="131" height="47" as="geometry" />
        </mxCell>
        <mxCell id="1s6SMQwYfVpw13C6PoIe-82" style="edgeStyle=orthogonalEdgeStyle;rounded=0;orthogonalLoop=1;jettySize=auto;html=1;exitX=0.5;exitY=0;exitDx=0;exitDy=0;strokeWidth=2;" edge="1" parent="1" source="1s6SMQwYfVpw13C6PoIe-83" target="1s6SMQwYfVpw13C6PoIe-78">
          <mxGeometry relative="1" as="geometry" />
        </mxCell>
        <mxCell id="1s6SMQwYfVpw13C6PoIe-83" value="Evaluate timestamp&lt;br&gt;&lt;font style=&quot;font-size: 10px;&quot;&gt;(delay or remove bundle)&lt;/font&gt;" style="rounded=1;whiteSpace=wrap;html=1;rotation=0;" vertex="1" parent="1">
          <mxGeometry x="868.9966821720611" y="513.5024523450339" width="119.75" height="35" as="geometry" />
        </mxCell>
        <mxCell id="1s6SMQwYfVpw13C6PoIe-84" value="&lt;font style=&quot;font-size: 8px;&quot;&gt;&quot;tick&quot;&lt;/font&gt;" style="rounded=0;whiteSpace=wrap;html=1;rotation=0;" vertex="1" parent="1">
          <mxGeometry x="938.3800000000001" y="482.88" width="47.05" height="19" as="geometry" />
        </mxCell>
        <mxCell id="1s6SMQwYfVpw13C6PoIe-89" value="&lt;font style=&quot;font-size: 8px;&quot;&gt;&quot;tick&quot; + &lt;font style=&quot;color: rgb(255, 217, 102);&quot;&gt;timestamp&lt;/font&gt;&lt;/font&gt;" style="rounded=0;whiteSpace=wrap;html=1;rotation=0;" vertex="1" parent="1">
          <mxGeometry x="949" y="553.73" width="78.5" height="16.48" as="geometry" />
        </mxCell>
        <mxCell id="1s6SMQwYfVpw13C6PoIe-90" value="&lt;font style=&quot;font-size: 8px;&quot;&gt;&quot;tick&quot; + &lt;font style=&quot;color: rgb(255, 217, 102);&quot;&gt;timestamp&lt;/font&gt;&lt;/font&gt;" style="rounded=0;whiteSpace=wrap;html=1;rotation=0;" vertex="1" parent="1">
          <mxGeometry x="1253" y="553.73" width="78.5" height="16.48" as="geometry" />
        </mxCell>
        <mxCell id="1s6SMQwYfVpw13C6PoIe-94" style="edgeStyle=orthogonalEdgeStyle;rounded=0;orthogonalLoop=1;jettySize=auto;html=1;entryX=0;entryY=0.5;entryDx=0;entryDy=0;curved=1;fillColor=#d5e8d4;strokeColor=#82b366;strokeWidth=2;" edge="1" parent="1" source="1s6SMQwYfVpw13C6PoIe-91" target="1s6SMQwYfVpw13C6PoIe-69">
          <mxGeometry relative="1" as="geometry" />
        </mxCell>
        <mxCell id="1s6SMQwYfVpw13C6PoIe-91" value="Client&lt;br style=&quot;border-color: var(--border-color);&quot;&gt;" style="rounded=1;whiteSpace=wrap;html=1;" vertex="1" parent="1">
          <mxGeometry x="866" y="656" width="131" height="47" as="geometry" />
        </mxCell>
        <mxCell id="1s6SMQwYfVpw13C6PoIe-96" style="edgeStyle=orthogonalEdgeStyle;rounded=0;orthogonalLoop=1;jettySize=auto;html=1;entryX=1;entryY=0.5;entryDx=0;entryDy=0;curved=1;fillColor=#f8cecc;strokeColor=#b85450;strokeWidth=2;" edge="1" parent="1" source="1s6SMQwYfVpw13C6PoIe-92" target="1s6SMQwYfVpw13C6PoIe-81">
          <mxGeometry relative="1" as="geometry" />
        </mxCell>
        <mxCell id="1s6SMQwYfVpw13C6PoIe-92" value="Client&lt;br style=&quot;border-color: var(--border-color);&quot;&gt;" style="rounded=1;whiteSpace=wrap;html=1;" vertex="1" parent="1">
          <mxGeometry x="1172.07" y="656" width="131" height="47" as="geometry" />
        </mxCell>
        <mxCell id="1s6SMQwYfVpw13C6PoIe-46" value="" style="group;rotation=30;" vertex="1" connectable="0" parent="1">
          <mxGeometry x="1021.001409277359" y="613.0021427294184" width="112.29903309786039" height="54.918076450958154" as="geometry" />
        </mxCell>
        <mxCell id="1s6SMQwYfVpw13C6PoIe-43" value="&lt;font style=&quot;font-size: 8px;&quot;&gt;&quot;/py tick&quot;&lt;/font&gt;" style="rounded=0;whiteSpace=wrap;html=1;rotation=15;" vertex="1" parent="1s6SMQwYfVpw13C6PoIe-46">
          <mxGeometry x="11" y="20" width="85" height="16.48" as="geometry" />
        </mxCell>
        <mxCell id="1s6SMQwYfVpw13C6PoIe-44" value="&lt;font style=&quot;font-size: 8px;&quot;&gt;&quot;/py tick&quot;&lt;/font&gt;" style="rounded=0;whiteSpace=wrap;html=1;rotation=15;" vertex="1" parent="1s6SMQwYfVpw13C6PoIe-46">
          <mxGeometry x="20" y="19" width="86" height="16.48" as="geometry" />
        </mxCell>
        <mxCell id="1s6SMQwYfVpw13C6PoIe-45" value="&lt;font style=&quot;font-size: 8px;&quot;&gt;&quot;/tick tick&quot; + &lt;font style=&quot;color: rgb(255, 217, 102);&quot;&gt;timestamp&lt;/font&gt;&lt;/font&gt;" style="rounded=0;whiteSpace=wrap;html=1;rotation=15;" vertex="1" parent="1s6SMQwYfVpw13C6PoIe-46">
          <mxGeometry x="27" y="18" width="87" height="16.48" as="geometry" />
        </mxCell>
        <mxCell id="1s6SMQwYfVpw13C6PoIe-97" value="" style="group" vertex="1" connectable="0" parent="1">
          <mxGeometry x="1214.1999999999998" y="303.75000000000006" width="46.75" height="59.14999999999998" as="geometry" />
        </mxCell>
        <mxCell id="1s6SMQwYfVpw13C6PoIe-98" value="" style="pointerEvents=1;verticalLabelPosition=bottom;shadow=0;dashed=0;align=center;html=1;verticalAlign=top;shape=mxgraph.electrical.waveforms.sine_wave;strokeWidth=3;rotation=-90;fillColor=#d5e8d4;strokeColor=#82b366;" vertex="1" parent="1s6SMQwYfVpw13C6PoIe-97">
          <mxGeometry x="-3.25" y="15.399999999999977" width="47" height="40.5" as="geometry" />
        </mxCell>
        <mxCell id="1s6SMQwYfVpw13C6PoIe-99" value="" style="pointerEvents=1;verticalLabelPosition=bottom;shadow=0;dashed=0;align=center;html=1;verticalAlign=top;shape=mxgraph.electrical.waveforms.sine_wave;strokeWidth=3;rotation=-90;fillColor=#d5e8d4;strokeColor=#82b366;" vertex="1" parent="1s6SMQwYfVpw13C6PoIe-97">
          <mxGeometry x="3" y="3.25" width="47" height="40.5" as="geometry" />
        </mxCell>
        <mxCell id="1s6SMQwYfVpw13C6PoIe-100" value="" style="group" vertex="1" connectable="0" parent="1">
          <mxGeometry x="908.13" y="300.77000000000004" width="46.75" height="59.14999999999998" as="geometry" />
        </mxCell>
        <mxCell id="1s6SMQwYfVpw13C6PoIe-101" value="" style="pointerEvents=1;verticalLabelPosition=bottom;shadow=0;dashed=0;align=center;html=1;verticalAlign=top;shape=mxgraph.electrical.waveforms.sine_wave;strokeWidth=3;rotation=-90;fillColor=#f8cecc;strokeColor=#b85450;" vertex="1" parent="1s6SMQwYfVpw13C6PoIe-100">
          <mxGeometry x="-3.25" y="15.399999999999977" width="47" height="40.5" as="geometry" />
        </mxCell>
        <mxCell id="1s6SMQwYfVpw13C6PoIe-102" value="" style="pointerEvents=1;verticalLabelPosition=bottom;shadow=0;dashed=0;align=center;html=1;verticalAlign=top;shape=mxgraph.electrical.waveforms.sine_wave;strokeWidth=3;rotation=-90;fillColor=#f8cecc;strokeColor=#b85450;" vertex="1" parent="1s6SMQwYfVpw13C6PoIe-100">
          <mxGeometry x="3" y="3.25" width="47" height="40.5" as="geometry" />
        </mxCell>
      </root>
    </mxGraphModel>
  </diagram>
</mxfile>
